<?xml version="1.0" encoding="utf-8"?>
<!-- Generator: Adobe Illustrator 27.3.1, SVG Export Plug-In . SVG Version: 6.00 Build 0)  -->
<svg version="1.1" id="圖層_1" xmlns="http://www.w3.org/2000/svg" xmlns:xlink="http://www.w3.org/1999/xlink" x="0px" y="0px"
	 viewBox="0 0 260 150" style="enable-background:new 0 0 260 150;" xml:space="preserve">
<style type="text/css">
	.st0{fill:#BFC1C6;}
	.st1{fill:#FFFFFF;}
	.st2{opacity:0.1;fill:#040000;enable-background:new    ;}
	.st3{fill:#454554;}
	.st4{fill:#2654A4;}
</style>
<g>
	<path class="st0" d="M244.5,0h-229C7.9,0,1.7,6.2,1.7,13.8v122.4c0,7.6,6.2,13.8,13.8,13.8h229c7.6,0,13.8-6.2,13.8-13.8V13.8
		C258.3,6.2,252.1,0,244.5,0z"/>
	<path class="st1" d="M21.4,137.7c-4.4,0-8-3.8-8-8.4V20.7c0-4.6,3.6-8.4,8-8.4h217c4.4,0,8,3.8,8,8.4v108.5c0,4.6-3.6,8.4-8,8.4
		H21.4L21.4,137.7z"/>
	<path class="st2" d="M44.4,123.5V26.5C44.4,11.8,56.3,0,70.9,0H15.5C7.9,0,1.7,6.2,1.7,13.8v122.4c0,7.6,6.2,13.8,13.8,13.8h55.4
		C56.3,150,44.4,138.1,44.4,123.5z"/>
	<g>
		<g>
			<path class="st3" d="M56.5,100.3h-6.6l-1.1-7.6h-8l-1.1,7.6h-6l6.7-41.7h9.6L56.5,100.3z M41.6,87.1h6.3L44.8,66L41.6,87.1z"/>
			<path class="st3" d="M81.4,68.2v1.5c0,4.3-1.3,7-4.2,8.4c3.5,1.4,4.9,4.5,4.9,8.9v3.4c0,6.4-3.4,9.9-9.9,9.9H61.8V58.7h9.9
				C78.5,58.7,81.4,61.8,81.4,68.2z M68.4,64.6v11H71c2.4,0,3.9-1.1,3.9-4.4v-2.3c0-3-1-4.3-3.3-4.3H68.4z M68.4,81.6v12.8h3.7
				c2.2,0,3.4-1,3.4-4.1v-3.6c0-3.9-1.2-5.1-4.2-5.1L68.4,81.6L68.4,81.6L68.4,81.6z"/>
			<path class="st3" d="M107.3,84.8v5.5c0,6.7-3.3,10.5-9.8,10.5c-6.4,0-9.8-3.8-9.8-10.5V68.7c0-6.7,3.3-10.5,9.8-10.5
				c6.4,0,9.8,3.8,9.8,10.5v4h-6.2v-4.5c0-3-1.3-4.1-3.4-4.1c-2.1,0-3.4,1.1-3.4,4.1v22.5c0,3,1.3,4,3.4,4c2.1,0,3.4-1.1,3.4-4v-6
				H107.3L107.3,84.8z"/>
			<path class="st3" d="M124.7,76.5h11.9v6h-11.9V76.5z"/>
			<path class="st3" d="M158.8,63.9c5.1,0,6.2-2.4,7.2-5.2h4.4v41.7h-6.5V68.5h-5.1V63.9L158.8,63.9z"/>
			<path class="st3" d="M190.2,64.1c-2.1,0-3.4,1.1-3.4,4.1v4.5h-6.2v-4c0-6.7,3.3-10.5,9.8-10.5c6.4,0,9.8,3.8,9.8,10.5
				c0,13.1-13,18-13,24.8c0,0.3,0,0.6,0.1,0.9h12.4v6h-18.9v-5.1c0-12.3,13-14.3,13-26.3C193.6,65.1,192.3,64.1,190.2,64.1z"/>
			<path class="st3" d="M219.1,68.9c0-3.7-1.3-4.8-3.4-4.8c-2.1,0-3.4,1.1-3.4,4.1v2.7h-6.2v-2.3c0-6.7,3.3-10.5,9.8-10.5
				c6.4,0,9.8,3.8,9.8,10.5v1.1c0,4.5-1.4,7.3-4.6,8.6c3.3,1.4,4.6,4.5,4.6,8.7v3.3c0,6.7-3.3,10.5-9.8,10.5
				c-6.4,0-9.8-3.8-9.8-10.5v-3.5h6.2v3.9c0,3,1.3,4.1,3.4,4.1c2.1,0,3.4-1,3.4-4.7v-3.3c0-3.9-1.3-5.3-4.3-5.3h-2.2v-6h2.6
				c2.4,0,3.9-1.1,3.9-4.4V68.9L219.1,68.9z"/>
			<path class="st3" d="M64.7,31.7c2.5,0,4.4,2,4.4,4.4c0,2.5-2,4.4-4.4,4.4c-2.5,0-4.4-2-4.4-4.4C60.2,33.7,62.2,31.7,64.7,31.7z"
				/>
			<path class="st3" d="M64.7,116.8c2.5,0,4.4,2,4.4,4.4c0,2.5-2,4.4-4.4,4.4c-2.5,0-4.4-2-4.4-4.4
				C60.2,118.8,62.2,116.8,64.7,116.8z"/>
			<path class="st3" d="M196.1,31.7c2.5,0,4.4,2,4.4,4.4c0,2.5-2,4.4-4.4,4.4c-2.5,0-4.4-2-4.4-4.4
				C191.6,33.7,193.6,31.7,196.1,31.7z"/>
			<path class="st3" d="M196.1,116.8c2.5,0,4.4,2,4.4,4.4c0,2.5-2,4.4-4.4,4.4c-2.5,0-4.4-2-4.4-4.4
				C191.6,118.8,193.6,116.8,196.1,116.8z"/>
		</g>
		<g id="XMLID_00000142890159033249086450000015443430851084262793_">
			<circle id="XMLID_00000021102703322668541440000007367721958995444882_" class="st4" cx="127.2" cy="27.3" r="3"/>
			<g id="XMLID_00000062907920897666696080000014381864305399335865_">
				<path id="XMLID_00000160871803676649876740000000809618477394257283_" class="st4" d="M140.5,44c-1-2-2-4.1-3-6.1
					c-0.3-0.5-0.7-0.8-1.3-0.8c-1.9,0-3.8,0-5.6,0c-0.1,0-0.2,0-0.4,0c-0.1-0.9-0.2-1.7-0.3-2.5l0,0c1,0.4,1.9,0.8,2.9,1.2
					c0.4,0.2,0.8,0.2,1.3,0c0.4-0.3,0.7-0.6,0.6-1.2c0-0.5-0.3-0.9-0.8-1.1c-1.4-0.6-2.9-1.2-4.3-1.8c-0.6-0.3-1.3-0.5-1.9-0.8
					c-0.2-0.1-0.4-0.1-0.5-0.1c0,0-0.2,0-0.2,0c-5,0.3-8.3,4.5-8.2,8.9c0.1,4.2,3.4,7.8,7.5,8.3c2.1,0.3,4.1-0.2,5.9-1.4
					c2.2-1.5,3.5-3.6,3.8-6.3c0.1,0.2,0.2,0.3,0.2,0.4c0.7,1.4,1.4,2.9,2.1,4.3c0.2,0.4,0.5,0.7,1,0.8c0.5,0.1,0.9-0.1,1.2-0.5
					C140.7,44.9,140.7,44.5,140.5,44z M129.3,45.1c-4,1.4-8.2-1.6-8.1-5.8c0-1.5,0.5-2.8,1.6-4c0.9-1,2.1-1.7,3.4-1.9
					c0.2,0,0.5-0.1,0.7-0.1c0.2,0,0.2,0.1,0.3,0.3c0.2,1.5,0.4,3,0.5,4.6c0,0.2,0,0.4,0.1,0.6c0.2,0.6,0.6,0.9,1.3,0.9
					c1.3,0,2.5,0,3.8,0c0.1,0,0.2,0,0.4,0C133.3,42,131.6,44.3,129.3,45.1z"/>
			</g>
		</g>
	</g>
</g>
</svg>
