<?xml version="1.0" encoding="utf-8"?>
<!-- Generator: Adobe Illustrator 16.0.0, SVG Export Plug-In . SVG Version: 6.00 Build 0)  -->
<!DOCTYPE svg PUBLIC "-//W3C//DTD SVG 1.1//EN" "http://www.w3.org/Graphics/SVG/1.1/DTD/svg11.dtd">
<svg version="1.1" id="圖層_1" xmlns="http://www.w3.org/2000/svg" xmlns:xlink="http://www.w3.org/1999/xlink" x="0px" y="0px"
	 width="113.387px" height="85.039px" viewBox="0 0 113.387 85.039" enable-background="new 0 0 113.387 85.039"
	 xml:space="preserve">
<path fill="#666666" d="M86.541,13.157H8.948C4.033,13.157,0,17.177,0,22.108v5.961v14.932v32.832c0,4.916,4.033,8.94,8.948,8.94
	h44.358h9.071H86.54c4.916,0,8.947-4.021,8.947-8.953v-5.961V54.93v-3.709v-7.361v-0.857V28.069v-5.961
	C95.49,17.177,91.465,13.157,86.541,13.157z M47.757,69.854H11.933c-1.635,0-2.982-1.353-2.982-2.979
	c0-1.636,1.35-2.992,2.982-2.992h35.824c1.627,0,2.972,1.34,2.972,2.992C50.729,68.501,49.376,69.854,47.757,69.854z M8.948,43.001
	V28.069h77.593v14.932H8.948z"/>
<path fill="#15B9A5" d="M77.394,0C57.515-0.008,41.395,16.113,41.387,35.986C41.378,55.865,57.491,71.994,77.371,72
	c19.874,0.008,36.008-16.111,36.016-35.99C113.394,16.137,97.269,0.007,77.394,0z"/>
<path fill="#FFFFFF" d="M67.082,52.664c-0.817,0.818-1.943,1.322-3.194,1.322c-2.491,0-4.518-2-4.518-4.494
	c0-1.248,0.525-2.381,1.354-3.199L87.692,19.34c0.821-0.835,1.954-1.334,3.201-1.334c2.48,0,4.502,2.018,4.502,4.489
	c0,1.268-0.521,2.383-1.356,3.207L67.082,52.664z"/>
<path fill="#FFFFFF" d="M69.436,27.056c-1.156,0.001-2.309-0.439-3.193-1.324c-1.762-1.762-1.78-4.608-0.016-6.373
	c0.882-0.882,2.055-1.312,3.22-1.304l21.435,0.009c1.171-0.01,2.324,0.438,3.206,1.32c1.754,1.754,1.757,4.61,0.009,6.357
	c-0.896,0.897-2.053,1.317-3.227,1.309L69.436,27.056z"/>
<path fill="#FFFFFF" d="M86.397,22.57c-0.001-1.156,0.439-2.309,1.324-3.193c1.762-1.762,4.608-1.78,6.372-0.016
	c0.883,0.882,1.312,2.055,1.305,3.22l-0.01,21.435c0.01,1.171-0.438,2.324-1.32,3.206c-1.754,1.754-4.61,1.757-6.357,0.009
	c-0.896-0.896-1.316-2.053-1.309-3.227L86.397,22.57z"/>
<g id="免憑證" display="none">
	<path display="inline" fill="#666666" d="M86.541,13.157H8.948C4.033,13.157,0,17.177,0,22.108v5.961v14.932v32.832
		c0,4.916,4.033,8.94,8.948,8.94h44.358h9.071H86.54c4.916,0,8.947-4.021,8.947-8.953v-5.961V54.93v-3.709v-7.361v-0.857V28.069
		v-5.961C95.49,17.177,91.465,13.157,86.541,13.157z M47.757,69.854H11.933c-1.635,0-2.982-1.353-2.982-2.979
		c0-1.636,1.35-2.992,2.982-2.992h35.824c1.627,0,2.972,1.34,2.972,2.992C50.729,68.501,49.376,69.854,47.757,69.854z M8.948,43.001
		V28.069h77.593v14.932H8.948z"/>
	<g display="inline">
		<path fill="#E5792E" d="M77.394,0C57.525,0,41.387,16.131,41.387,35.993C41.387,55.884,57.525,72,77.394,72
			c19.877,0,35.993-16.116,35.993-36.007C113.387,16.131,97.271,0,77.394,0z"/>
		<path fill="#FFFFFF" d="M96.3,27.935L77.228,47.051c-0.812,0.812-1.949,1.312-3.21,1.312c-1.247,0-2.377-0.5-3.196-1.312
			L58.481,34.718c-0.826-0.826-1.333-1.964-1.333-3.218c0-2.485,2-4.485,4.507-4.485c1.247,0,2.37,0.485,3.183,1.333l9.182,9.159
			l15.92-15.935c0.833-0.812,1.949-1.312,3.203-1.312c2.485,0,4.507,2.015,4.507,4.485C97.648,26.015,97.141,27.123,96.3,27.935z"/>
	</g>
</g>
</svg>
