<?xml version="1.0" encoding="utf-8"?>
<!-- Generator: Adobe Illustrator 16.0.0, SVG Export Plug-In . SVG Version: 6.00 Build 0)  -->
<!DOCTYPE svg PUBLIC "-//W3C//DTD SVG 1.1//EN" "http://www.w3.org/Graphics/SVG/1.1/DTD/svg11.dtd">
<svg version="1.1" id="圖層_5_1_" xmlns="http://www.w3.org/2000/svg" xmlns:xlink="http://www.w3.org/1999/xlink" x="0px"
	 y="0px" width="60px" height="60px" viewBox="0 0 60 60" enable-background="new 0 0 60 60" xml:space="preserve">
<g>
	<circle fill="#FFFFFF" cx="24.839" cy="29.017" r="1.9"/>
	<circle fill="#FFFFFF" cx="35.161" cy="29.017" r="1.9"/>
	<path fill="#FFFFFF" d="M35.819,35.215c-0.08-0.205-0.234-0.366-0.432-0.453c-0.423-0.184-0.94,0.015-1.118,0.419
		c-0.624,1.345-2.338,2.241-4.27,2.241c-1.932,0-3.646-0.896-4.266-2.232c-0.135-0.307-0.438-0.5-0.775-0.5
		c-0.12,0-0.236,0.023-0.346,0.072c-0.198,0.087-0.352,0.248-0.433,0.453c-0.084,0.217-0.08,0.452,0.013,0.664
		c0.865,1.917,3.199,3.208,5.807,3.208c2.608,0,4.943-1.291,5.809-3.212C35.9,35.667,35.904,35.432,35.819,35.215z"/>
	<path fill="#FFFFFF" d="M49,30.327c0-1.554-1.265-2.819-2.819-2.819h-2.219v-1.851c0-3.045-2.478-5.523-5.523-5.523h-7.585v-4.391
		c0-0.462-0.391-0.853-0.854-0.853s-0.853,0.39-0.853,0.853v4.391h-7.585c-3.045,0-5.523,2.478-5.523,5.523v1.851h-2.219
		c-1.555,0-2.819,1.265-2.819,2.819v4.588c0,1.556,1.265,2.819,2.819,2.819h2.219v1.852c0,3.045,2.478,5.522,5.523,5.522h16.877
		c3.046,0,5.523-2.478,5.523-5.522v-1.852h2.219c1.555,0,2.819-1.264,2.819-2.819V30.327z M16.039,36.028h-2.219
		c-0.647,0-1.154-0.507-1.154-1.154v-4.547c0-0.647,0.507-1.154,1.154-1.154h2.219V36.028z M42.296,39.545
		c0,2.127-1.73,3.857-3.857,3.857H21.562c-2.127,0-3.858-1.73-3.858-3.857V25.658c0-2.127,1.73-3.858,3.858-3.858h16.877
		c2.127,0,3.857,1.73,3.857,3.858V39.545z M47.335,34.915c0,0.647-0.507,1.155-1.154,1.155h-2.219v-6.897h2.219
		c0.647,0,1.154,0.507,1.154,1.154V34.915z"/>
</g>
</svg>
