<?xml version="1.0" encoding="utf-8"?>
<!-- Generator: Adobe Illustrator 26.2.1, SVG Export Plug-In . SVG Version: 6.00 Build 0)  -->
<svg version="1.1"
	 id="Layer_1" inkscape:version="0.91 r13725" sodipodi:docname="YouTube_light_icon (2017).svg" xmlns:cc="http://creativecommons.org/ns#" xmlns:dc="http://purl.org/dc/elements/1.1/" xmlns:inkscape="http://www.inkscape.org/namespaces/inkscape" xmlns:rdf="http://www.w3.org/1999/02/22-rdf-syntax-ns#" xmlns:sodipodi="http://sodipodi.sourceforge.net/DTD/sodipodi-0.dtd" xmlns:svg="http://www.w3.org/2000/svg"
	 xmlns="http://www.w3.org/2000/svg" xmlns:xlink="http://www.w3.org/1999/xlink" x="0px" y="0px" viewBox="0 0 60 60"
	 style="enable-background:new 0 0 60 60;" xml:space="preserve">
<style type="text/css">
	.st0{fill:#FFFFFF;}
</style>
<sodipodi:namedview  bordercolor="#666666" borderopacity="1" fit-margin-bottom="0" fit-margin-left="0" fit-margin-right="0" fit-margin-top="0" gridtolerance="10" guidetolerance="10" id="namedview29" inkscape:current-layer="Layer_1" inkscape:cx="30.091613" inkscape:cy="15.29613" inkscape:pageopacity="0" inkscape:pageshadow="2" inkscape:window-height="715" inkscape:window-maximized="1" inkscape:window-width="1366" inkscape:window-x="-8" inkscape:window-y="-8" inkscape:zoom="5.4355702" objecttolerance="10" pagecolor="#ffffff" showgrid="false">
	</sodipodi:namedview>
<g id="g5" transform="scale(0.58823529,0.58823529)">
	<path id="path7" class="st0" d="M51,28.4c0,0-20.2,0-25.3,1.3c-2.7,0.7-4.9,3-5.7,5.7C18.7,40.5,18.7,51,18.7,51s0,10.5,1.3,15.5
		c0.7,2.8,2.9,4.9,5.7,5.7c5.1,1.4,25.3,1.4,25.3,1.4s20.2,0,25.3-1.3c2.8-0.7,4.9-2.9,5.7-5.7c1.3-5.1,1.3-15.5,1.3-15.5
		s0.1-10.5-1.3-15.6c-0.7-2.8-2.9-4.9-5.7-5.7C71.2,28.4,51,28.4,51,28.4z M44.6,41.3L61.4,51l-16.8,9.7V41.3z"/>
</g>
</svg>
