<?xml version="1.0" encoding="utf-8"?>
<!-- Generator: Adobe Illustrator 27.9.0, SVG Export Plug-In . SVG Version: 6.00 Build 0)  -->
<svg version="1.1" id="圖層_1" xmlns="http://www.w3.org/2000/svg" xmlns:xlink="http://www.w3.org/1999/xlink" x="0px" y="0px"
	 viewBox="0 0 30 30" style="enable-background:new 0 0 30 30;" xml:space="preserve">
<style type="text/css">
	.st0{fill:#ffb800;}
</style>
<g>
	<path class="st0" d="M11.2,10.9v6.5H3.7c-0.9,0-1.7-0.8-1.7-1.7v-3.1C2,11.7,2.8,11,3.7,11L11.2,10.9L11.2,10.9z"/>
	<path class="st0" d="M24.2,3.6v21h-2.5l-9.6-7.1v-6.8l9.6-7.1L24.2,3.6z"/>
	<path class="st0" d="M10.3,25.8c-0.3,0.4-0.7,0.6-1.2,0.6c-0.6,0-1.2-0.4-1.4-1l-2.3-7h3.4l1.7,6.1C10.6,25,10.5,25.4,10.3,25.8
		L10.3,25.8z"/>
	<path class="st0" d="M28,14.1c0,1.7-1.3,3.1-2.9,3.3v-6.6C26.7,11,28,12.4,28,14.1z"/>
</g>
</svg>
