<?xml version="1.0" encoding="utf-8"?>
<!-- Generator: Adobe Illustrator 27.3.1, SVG Export Plug-In . SVG Version: 6.00 Build 0)  -->
<svg version="1.1" xmlns="http://www.w3.org/2000/svg" xmlns:xlink="http://www.w3.org/1999/xlink" x="0px" y="0px"
	 viewBox="0 0 90 60" style="enable-background:new 0 0 90 60;" xml:space="preserve">
<style type="text/css">
	.st0{fill:#6CA8FF;}
	.st1{fill:#FFD715;}
	.st2{fill:#FFCC01;}
	.st3{fill:#FCBD11;}
	.st4{fill:#FFDB53;}
	.st5{fill:#E69A24;}
	.st6{fill:#2654A4;}
	.st7{fill:#00ACB0;}
	.st8{fill:#00979E;}
	.st9{fill:#007D7E;}
	.st10{fill:#412735;}
	.st11{fill:#6D6D6D;}
	.st12{fill:#FFFFFF;}
	.st13{fill:#C63E1C;}
	.st14{fill:#FAC544;}
	.st15{display:none;}
	.st16{display:inline;}
	.st17{fill:#BADDBA;}
	.st18{fill:#EFA400;}
	.st19{fill:#86C687;}
	.st20{fill:#F9BF2E;}
	.st21{fill:#BFC1C6;}
	.st22{fill:#454554;}
	.st23{opacity:0.1;fill:#040000;enable-background:new    ;}
</style>
<g id="減免使用牌照稅">
	<path class="st0" d="M88.7,19.6h-4.3V0.1h-9.8v19.5h-4.3c-1.1,0-1.6,1.3-0.9,2.1l9.2,9.6c0.5,0.5,1.3,0.5,1.8,0l9.2-9.6
		C90.3,20.9,89.7,19.6,88.7,19.6z"/>
	<g>
		<g>
			<circle class="st1" cx="40.9" cy="29.7" r="26.4"/>
		</g>
		<g>
			<circle class="st2" cx="40.9" cy="29.7" r="22.4"/>
		</g>
		<g>
			<path class="st3" d="M52.6,10.6c2.2,3.5,3.5,7.6,3.5,12.1C56.1,35,46.1,45,33.7,45c-4.3,0-8.3-1.2-11.7-3.3
				C26,47.9,33,52,40.9,52c12.4,0,22.4-10,22.4-22.4C63.3,21.6,59,14.5,52.6,10.6z"/>
		</g>
		<g>
			<path class="st4" d="M22.4,31.7c0-10.9,8.8-19.8,19.8-19.8c6.4,0,12,3,15.7,7.7c-3.4-5.9-9.8-9.9-17.1-9.9
				C29.8,9.8,21,18.6,21,29.5c0,4.5,1.5,8.7,4.1,12C23.4,38.7,22.4,35.3,22.4,31.7z"/>
		</g>
		<path class="st5" d="M42.7,15.2v2.9c1.1,0.2,2.1,0.6,2.8,1.1c0.7,0.6,1.4,1.4,2.1,2.6l-2.8,1.6c-0.9-1.6-2-2.3-3.3-2.3
			c-0.9,0-1.6,0.3-2.1,0.8c-0.6,0.5-0.8,1.1-0.8,1.9c0,0.7,0.2,1.3,0.7,1.7c0.4,0.4,1.3,1,2.7,1.6c1.2,0.5,2.1,1,2.9,1.5
			c0.8,0.5,1.3,0.9,1.7,1.4c1.1,1.2,1.6,2.6,1.6,4.3c0,1.6-0.5,3.1-1.5,4.4c-1,1.3-2.3,2.1-3.9,2.5v3h-2.5v-2.9
			c-1.9-0.3-3.3-1-4.3-2c-1-1-1.7-2.5-2.2-4.6l3.2-0.7c0.4,1.5,1,2.5,1.6,3.2c0.7,0.6,1.5,0.9,2.6,0.9c1.1,0,2-0.3,2.7-1
			c0.7-0.7,1.1-1.6,1.1-2.6c0-1-0.3-1.7-0.9-2.3c-0.3-0.3-0.7-0.6-1.3-1c-0.6-0.4-1.3-0.7-2.2-1.2c-1.9-0.8-3.1-1.6-3.7-2.3
			c-0.9-1.1-1.4-2.3-1.4-3.8c0-0.7,0.1-1.3,0.3-1.9c0.2-0.6,0.5-1.1,1-1.6c0.4-0.5,0.9-0.9,1.6-1.3c0.6-0.4,1.3-0.6,2.1-0.8v-2.9
			H42.7z"/>
	</g>
	<path class="st6" d="M79.1,31.8h-4.3V-0.1H65v31.9h-4.3c-1.1,0-1.6,1.3-0.9,2.1l9.2,9.6c0.5,0.5,1.3,0.5,1.8,0l9.2-9.6
		C80.7,33.1,80.2,31.8,79.1,31.8z"/>
	<path class="st0" d="M69.1,12.7h-4.3V-0.1H55v12.7h-4.3c-1.1,0-1.6,1.3-0.9,2.1l9.2,9.6c0.5,0.5,1.3,0.5,1.8,0l9.2-9.6
		C70.7,14,70.2,12.7,69.1,12.7z"/>
	<g>
		<path class="st7" d="M0.6,51.3c0,0,2.2-6.9,8.4-10.6c0,0,5.8-4.1,20.9-1.4l3.1,5.5l9.2,0c0,0,5.1,0,2.4,5.5"/>
		<path class="st8" d="M45,53.9c0,0.7-0.5,1.2-1.2,1.2H1.8c-0.7,0-1.2-0.5-1.2-1.2v-2.5c0-0.7,0.5-1.2,1.2-1.2h42.1
			c0.7,0,1.2,0.5,1.2,1.2V53.9z"/>
		<path class="st9" d="M45.3,53.9c0,0.7-0.6,1.2-1.2,1.2H1.8c-0.7,0-1.2-0.6-1.2-1.2l0,0c0-0.7,0.6-1.2,1.2-1.2h42.3
			C44.8,52.6,45.3,53.2,45.3,53.9L45.3,53.9z"/>
		<g>
			
				<ellipse transform="matrix(9.839121e-02 -0.9951 0.9951 9.839121e-02 -46.7059 58.6118)" class="st10" cx="9" cy="55.1" rx="4.9" ry="4.9"/>
			<path class="st11" d="M5.5,55.1c0-1.9,1.6-3.5,3.5-3.5c1.9,0,3.5,1.6,3.5,3.5c0,1.9-1.6,3.5-3.5,3.5C7,58.6,5.5,57,5.5,55.1z"/>
			<path class="st12" d="M6.5,55.1c0-1.4,1.1-2.5,2.5-2.5c1.4,0,2.5,1.1,2.5,2.5c0,1.4-1.1,2.5-2.5,2.5C7.6,57.6,6.5,56.5,6.5,55.1z
				"/>
		</g>
		<g>
			
				<ellipse transform="matrix(0.1226 -0.9925 0.9925 0.1226 -21.9673 85.3165)" class="st10" cx="37.3" cy="55.1" rx="4.9" ry="4.9"/>
			<path class="st11" d="M33.7,55.1c0-1.9,1.6-3.5,3.5-3.5c1.9,0,3.5,1.6,3.5,3.5c0,1.9-1.6,3.5-3.5,3.5
				C35.3,58.6,33.7,57,33.7,55.1z"/>
			<path class="st12" d="M34.7,55.1c0-1.4,1.1-2.5,2.5-2.5c1.4,0,2.5,1.1,2.5,2.5c0,1.4-1.1,2.5-2.5,2.5
				C35.9,57.6,34.7,56.5,34.7,55.1z"/>
		</g>
		<path class="st9" d="M1.7,53.7c0,0,6.4-2.5,14.6,0c0,0-0.2-3.8-3.8-4.5C9,48.4,3.2,49.8,1.7,53.7z"/>
		<path class="st9" d="M30,53.7c0,0,6.4-2.5,14.6,0c0,0-0.2-3.8-3.8-4.5C37.2,48.4,31.5,49.8,30,53.7z"/>
		<g>
			<path class="st12" d="M14.8,44.9h7.2v-5.4c-1.2-0.1-2.6-0.1-4.2,0c-1.1,0-2.1,0.2-3,0.4V44.9z"/>
			<path class="st12" d="M22.8,44.9h8.7l-2.2-4.4c0,0-2.3-0.7-6.5-1V44.9z"/>
			<path class="st12" d="M13.9,40.1c-5.2,1.4-8.2,4.8-8.2,4.8h8.2V40.1z"/>
		</g>
		<path class="st8" d="M17.6,46c0,0.1-0.1,0.3-0.3,0.3h-2c-0.1,0-0.3-0.1-0.3-0.3l0,0c0-0.1,0.1-0.3,0.3-0.3h2
			C17.5,45.7,17.6,45.8,17.6,46L17.6,46z"/>
		<path class="st8" d="M25.9,46c0,0.1-0.1,0.3-0.3,0.3h-2c-0.1,0-0.3-0.1-0.3-0.3l0,0c0-0.1,0.1-0.3,0.3-0.3h2
			C25.8,45.7,25.9,45.8,25.9,46L25.9,46z"/>
		<path class="st13" d="M1.3,52.6c0,0.4-0.3,0.7-0.7,0.7l0,0c-0.4,0-0.7-0.3-0.7-0.7v-1.2c0-0.4,0.3-0.7,0.7-0.7l0,0
			c0.4,0,0.7,0.3,0.7,0.7V52.6z"/>
		<path class="st14" d="M45.9,48.5c0,0.5-0.4,0.9-0.9,0.9l0,0c-0.5,0-0.9-0.4-0.9-0.9v-1.6c0-0.5,0.4-0.9,0.9-0.9l0,0
			c0.5,0,0.9,0.4,0.9,0.9V48.5z"/>
	</g>
</g>
<g id="申請身心障礙證明" class="st15">
	<g class="st16">
		<path class="st17" d="M55.3,13.3H44.6H16.7c-5.2,0-9.4,3.9-9.4,8.7v29.3c0,4.8,4.2,8.7,9.4,8.7h56.6c5.2,0,9.4-3.9,9.4-8.7V22
			c0-4.8-4.2-8.7-9.4-8.7H55.3z"/>
		<rect x="35.9" y="19.5" class="st12" width="19.2" height="5.6"/>
		<polygon class="st18" points="39.2,0 29.3,0 35.5,13.3 45.2,13.3 		"/>
		<g>
			<g>
				<path class="st19" d="M70.3,49.2H45.4c-0.8,0-1.5,0.7-1.5,1.5c0,0.8,0.7,1.5,1.5,1.5h24.8c0.8,0,1.5-0.7,1.5-1.5
					C71.8,49.9,71.1,49.2,70.3,49.2z"/>
				<path class="st19" d="M70.3,41.7H45.4c-0.8,0-1.5,0.7-1.5,1.5s0.7,1.5,1.5,1.5h24.8c0.8,0,1.5-0.7,1.5-1.5S71.1,41.7,70.3,41.7z
					"/>
				<path class="st19" d="M54.9,37.1h15.4c0.8,0,1.5-0.7,1.5-1.5c0-0.8-0.7-1.5-1.5-1.5H54.9c-0.8,0-1.5,0.7-1.5,1.5
					C53.4,36.4,54,37.1,54.9,37.1z"/>
			</g>
			<g>
				<circle class="st12" cx="28.3" cy="38.6" r="6.1"/>
				<path class="st12" d="M34,45.2c-3.3,2.8-8.1,2.8-11.3,0c-2.6,1-4.4,3.5-4.4,6.5v2.1h20.1v-2.1C38.3,48.7,36.5,46.2,34,45.2z"/>
			</g>
		</g>
		<polygon class="st20" points="51.9,0 40.6,22.3 50.5,22.3 61.8,0 		"/>
	</g>
</g>
<g id="身障專用停車位識別證" class="st15">
	<g class="st16">
		<g>
			<rect x="4.6" y="4.1" class="st6" width="45" height="42.2"/>
			<g>
				<path class="st12" d="M27.6,12.5c2.8,0,5,0.5,6.6,1.7c1.5,1.1,2.6,3,2.6,5.6c0,5.7-4.9,8-8.6,8c-0.4,0-0.8,0-1.1-0.1l-2.7-0.7
					V33c0,3.3,0.3,3.4,3.9,3.8v1.1H17.5v-1.1c3.4-0.4,3.5-0.6,3.5-3.8V17.4c0-3.5-0.4-3.6-3.5-3.9v-1.1H27.6z M24.4,25.6
					c0.5,0.2,1.5,0.5,2.9,0.5c2.6,0,5.9-1.3,5.9-6.3c0-4.3-2.8-6-6.1-6c-1.1,0-2,0.2-2.2,0.5c-0.3,0.3-0.4,0.7-0.4,1.8V25.6z"/>
			</g>
		</g>
		<g>
			<path class="st7" d="M28.8,45.1c0,0,2.8-8.6,10.5-13.3c0,0,7.3-5.1,26.1-1.7l3.8,6.9l11.5,0c0,0,6.3,0,2.9,6.9"/>
			<path class="st8" d="M84.2,48.3c0,0.8-0.7,1.5-1.5,1.5H30.2c-0.8,0-1.5-0.7-1.5-1.5v-3.2c0-0.8,0.7-1.5,1.5-1.5h52.5
				c0.8,0,1.5,0.7,1.5,1.5V48.3z"/>
			<path class="st9" d="M84.6,48.3c0,0.8-0.7,1.5-1.5,1.5H30.3c-0.8,0-1.5-0.7-1.5-1.5l0,0c0-0.8,0.7-1.5,1.5-1.5h52.8
				C83.9,46.7,84.6,47.4,84.6,48.3L84.6,48.3z"/>
			<g>
				
					<ellipse transform="matrix(9.839121e-02 -0.9951 0.9951 9.839121e-02 -14.1894 83.9515)" class="st10" cx="39.2" cy="49.8" rx="6.1" ry="6.1"/>
				<path class="st11" d="M34.8,49.8c0-2.4,2-4.4,4.4-4.4c2.4,0,4.4,2,4.4,4.4c0,2.4-2,4.4-4.4,4.4C36.8,54.2,34.8,52.2,34.8,49.8z"
					/>
				<path class="st12" d="M36.1,49.8c0-1.7,1.4-3.2,3.2-3.2c1.7,0,3.2,1.4,3.2,3.2c0,1.7-1.4,3.2-3.2,3.2
					C37.5,53,36.1,51.6,36.1,49.8z"/>
			</g>
			<g>
				
					<ellipse transform="matrix(0.1226 -0.9925 0.9925 0.1226 15.9606 117.6656)" class="st10" cx="74.5" cy="49.8" rx="6.1" ry="6.1"/>
				<path class="st11" d="M70.1,49.8c0-2.4,2-4.4,4.4-4.4c2.4,0,4.4,2,4.4,4.4c0,2.4-2,4.4-4.4,4.4C72.1,54.2,70.1,52.2,70.1,49.8z"
					/>
				<path class="st12" d="M71.4,49.8c0-1.7,1.4-3.2,3.2-3.2c1.7,0,3.2,1.4,3.2,3.2c0,1.7-1.4,3.2-3.2,3.2
					C72.8,53,71.4,51.6,71.4,49.8z"/>
			</g>
			<path class="st9" d="M30.2,48.1c0,0,8-3.2,18.2,0c0,0-0.3-4.7-4.7-5.7C39.2,41.5,32,43.2,30.2,48.1z"/>
			<path class="st9" d="M65.4,48.1c0,0,8-3.2,18.2,0c0,0-0.3-4.7-4.7-5.7C74.5,41.5,67.3,43.2,65.4,48.1z"/>
			<g>
				<path class="st12" d="M46.5,37.1h8.9v-6.8c-1.6-0.1-3.3-0.1-5.2,0c-1.3,0.1-2.6,0.2-3.7,0.5V37.1z"/>
				<path class="st12" d="M56.5,37.1h10.9l-2.8-5.5c0,0-2.9-0.9-8.1-1.2V37.1z"/>
				<path class="st12" d="M45.4,31c-6.5,1.8-10.2,6-10.2,6h10.2V31z"/>
			</g>
			<path class="st8" d="M49.9,38.4c0,0.2-0.1,0.3-0.3,0.3h-2.5c-0.2,0-0.3-0.1-0.3-0.3l0,0c0-0.2,0.1-0.3,0.3-0.3h2.5
				C49.8,38.1,49.9,38.3,49.9,38.4L49.9,38.4z"/>
			<path class="st8" d="M60.4,38.4c0,0.2-0.1,0.3-0.3,0.3h-2.5c-0.2,0-0.3-0.1-0.3-0.3l0,0c0-0.2,0.1-0.3,0.3-0.3h2.5
				C60.2,38.1,60.4,38.3,60.4,38.4L60.4,38.4z"/>
			<path class="st13" d="M29.7,46.7c0,0.5-0.4,0.8-0.8,0.8l0,0c-0.5,0-0.8-0.4-0.8-0.8v-1.5c0-0.5,0.4-0.8,0.8-0.8l0,0
				c0.5,0,0.8,0.4,0.8,0.8V46.7z"/>
			<path class="st14" d="M85.4,41.6c0,0.6-0.5,1.1-1.1,1.1l0,0c-0.6,0-1.1-0.5-1.1-1.1v-2c0-0.6,0.5-1.1,1.1-1.1l0,0
				c0.6,0,1.1,0.5,1.1,1.1V41.6z"/>
		</g>
	</g>
</g>
<g id="身障專用車牌" class="st15">
	<g class="st16">
		<path class="st21" d="M64.3,0H7.4C3.3,0,0,3.3,0,7.4v27.1c0,4.1,3.3,7.4,7.4,7.4h56.9c4.1,0,7.4-3.3,7.4-7.4V7.4
			C71.6,3.3,68.3,0,64.3,0z"/>
		<path class="st12" d="M7.4,36.6c-1.2,0-2.1-0.9-2.1-2.1V7.4c0-1.2,0.9-2.1,2.1-2.1h56.9c1.2,0,2.1,0.9,2.1,2.1v27.1
			c0,1.2-0.9,2.1-2.1,2.1H7.4L7.4,36.6z"/>
		<g>
			<path class="st22" d="M15.2,27h-1.8l-0.3-2.1h-2.2L10.5,27H8.8l1.9-11.6h2.7L15.2,27z M11,23.3h1.8l-0.9-5.9L11,23.3z"/>
			<path class="st22" d="M22.2,18v0.4c0,1.2-0.4,2-1.2,2.3c1,0.4,1.4,1.3,1.4,2.5v0.9c0,1.8-0.9,2.8-2.8,2.8h-2.9V15.4h2.8
				C21.3,15.4,22.2,16.2,22.2,18z M18.5,17v3.1h0.7c0.7,0,1.1-0.3,1.1-1.2v-0.6c0-0.8-0.3-1.2-0.9-1.2H18.5z M18.5,21.8v3.6h1
				c0.6,0,0.9-0.3,0.9-1.1v-1c0-1.1-0.3-1.4-1.2-1.4L18.5,21.8L18.5,21.8L18.5,21.8z"/>
			<path class="st22" d="M29.4,22.6v1.5c0,1.9-0.9,2.9-2.7,2.9c-1.8,0-2.7-1.1-2.7-2.9v-6c0-1.9,0.9-2.9,2.7-2.9
				c1.8,0,2.7,1.1,2.7,2.9v1.1h-1.7V18c0-0.8-0.4-1.1-0.9-1.1c-0.6,0-0.9,0.3-0.9,1.1v6.3c0,0.8,0.4,1.1,0.9,1.1
				c0.6,0,0.9-0.3,0.9-1.1v-1.7H29.4L29.4,22.6z"/>
			<path class="st22" d="M34.2,20.3h3.3V22h-3.3V20.3z"/>
			<path class="st22" d="M43.8,16.8c1.4,0,1.7-0.7,2-1.5H47V27h-1.8v-8.9h-1.4V16.8L43.8,16.8z"/>
			<path class="st22" d="M52.5,16.9c-0.6,0-0.9,0.3-0.9,1.1v1.2h-1.7v-1.1c0-1.9,0.9-2.9,2.7-2.9c1.8,0,2.7,1.1,2.7,2.9
				c0,3.7-3.6,5-3.6,6.9c0,0.1,0,0.2,0,0.2h3.5V27h-5.3v-1.4c0-3.4,3.6-4,3.6-7.3C53.5,17.2,53.1,16.9,52.5,16.9z"/>
			<path class="st22" d="M60.6,18.2c0-1-0.4-1.3-0.9-1.3c-0.6,0-0.9,0.3-0.9,1.1v0.7H57v-0.6c0-1.9,0.9-2.9,2.7-2.9
				c1.8,0,2.7,1.1,2.7,2.9v0.3c0,1.2-0.4,2-1.3,2.4c0.9,0.4,1.3,1.3,1.3,2.4v0.9c0,1.9-0.9,2.9-2.7,2.9c-1.8,0-2.7-1.1-2.7-2.9v-1
				h1.7v1.1c0,0.8,0.4,1.1,0.9,1.1c0.6,0,0.9-0.3,0.9-1.3v-0.9c0-1.1-0.4-1.5-1.2-1.5h-0.6v-1.7h0.7c0.7,0,1.1-0.3,1.1-1.2V18.2
				L60.6,18.2z"/>
			<path class="st22" d="M17.5,7.8c0.7,0,1.2,0.6,1.2,1.2c0,0.7-0.6,1.2-1.2,1.2c-0.7,0-1.2-0.6-1.2-1.2C16.2,8.4,16.8,7.8,17.5,7.8
				z"/>
			<path class="st22" d="M17.5,31.6c0.7,0,1.2,0.6,1.2,1.2c0,0.7-0.6,1.2-1.2,1.2c-0.7,0-1.2-0.6-1.2-1.2
				C16.2,32.1,16.8,31.6,17.5,31.6z"/>
			<path class="st22" d="M54.2,7.8c0.7,0,1.2,0.6,1.2,1.2c0,0.7-0.6,1.2-1.2,1.2c-0.7,0-1.2-0.6-1.2-1.2C52.9,8.4,53.5,7.8,54.2,7.8
				z"/>
			<path class="st22" d="M54.2,31.6c0.7,0,1.2,0.6,1.2,1.2c0,0.7-0.6,1.2-1.2,1.2c-0.7,0-1.2-0.6-1.2-1.2
				C52.9,32.1,53.5,31.6,54.2,31.6z"/>
		</g>
		<path class="st23" d="M11.9,34.5V7.4c0-4.1,3.3-7.4,7.4-7.4H7.4C3.3,0,0,3.3,0,7.4v27.1c0,4.1,3.3,7.4,7.4,7.4h11.9
			C15.2,41.9,11.9,38.6,11.9,34.5z"/>
	</g>
	<g class="st16">
		<circle class="st6" cx="70.6" cy="40.6" r="19.4"/>
		<g id="XMLID_1363_">
			<circle id="XMLID_1173_" class="st12" cx="69.2" cy="31.5" r="2.7"/>
			<g id="XMLID_1248_">
				<path id="XMLID_1180_" class="st12" d="M81.2,46.7c-0.9-1.8-1.8-3.7-2.8-5.5c-0.2-0.5-0.6-0.7-1.2-0.7c-1.7,0-3.4,0-5.1,0
					c-0.1,0-0.2,0-0.4,0c-0.1-0.8-0.2-1.5-0.3-2.3l0,0c0.9,0.4,1.8,0.7,2.7,1.1c0.4,0.2,0.8,0.2,1.1,0c0.4-0.2,0.6-0.6,0.6-1
					c0-0.5-0.3-0.8-0.8-1c-1.3-0.5-2.6-1.1-3.9-1.6c-0.6-0.2-1.2-0.5-1.8-0.7c-0.2-0.1-0.3-0.1-0.5-0.1c0,0-0.2,0-0.2,0
					c-4.5,0.3-7.5,4.1-7.4,8.1c0.1,3.8,3.1,7.1,6.8,7.5c1.9,0.2,3.7-0.2,5.3-1.2c2-1.3,3.1-3.3,3.5-5.7c0.1,0.2,0.2,0.3,0.2,0.4
					c0.6,1.3,1.3,2.6,1.9,3.9c0.2,0.4,0.5,0.7,0.9,0.7c0.4,0.1,0.8-0.1,1.1-0.4C81.4,47.5,81.4,47.1,81.2,46.7z M71,47.7
					c-3.6,1.3-7.4-1.4-7.4-5.3c0-1.4,0.5-2.6,1.4-3.6c0.8-0.9,1.9-1.5,3.1-1.8c0.2,0,0.5-0.1,0.7-0.1c0.2,0,0.2,0.1,0.2,0.2
					c0.2,1.4,0.3,2.8,0.5,4.1c0,0.2,0,0.4,0.1,0.6c0.1,0.5,0.6,0.8,1.2,0.8c1.2,0,2.3,0,3.5,0c0.1,0,0.2,0,0.4,0
					C74.7,44.8,73.1,46.9,71,47.7z"/>
			</g>
		</g>
	</g>
</g>
</svg>
