<?xml version="1.0" encoding="utf-8"?>
<!-- Generator: Adobe Illustrator 27.3.1, SVG Export Plug-In . SVG Version: 6.00 Build 0)  -->
<svg version="1.1" id="圖層_1" xmlns="http://www.w3.org/2000/svg" xmlns:xlink="http://www.w3.org/1999/xlink" x="0px" y="0px"
	 viewBox="0 0 260 200" style="enable-background:new 0 0 260 200;" xml:space="preserve">
<style type="text/css">
	.st0{fill:#BFC1C6;}
	.st1{fill:#FFFFFF;}
	.st2{opacity:0.1;fill:#040000;enable-background:new    ;}
	.st3{fill:#454554;}
	.st4{fill:#2654A4;}
</style>
<g>
	<path class="st0" d="M246,24H14C6.3,24,0,30.3,0,38v124c0,7.7,6.3,14,14,14h232c7.7,0,14-6.3,14-14V38C260,30.3,253.7,24,246,24z"
		/>
	<path class="st1" d="M20,163.5c-4.5,0-8.1-3.8-8.1-8.5V45c0-4.7,3.6-8.5,8.1-8.5h219.9c4.5,0,8.1,3.8,8.1,8.5V155
		c0,4.7-3.6,8.5-8.1,8.5H20L20,163.5z"/>
	<path class="st2" d="M43.3,149.2V50.8C43.3,36,55.3,24,70.1,24H14C6.3,24,0,30.3,0,38v124c0,7.7,6.3,14,14,14h56.1
		C55.3,176,43.3,164,43.3,149.2z"/>
	<g>
		<g>
			<path class="st3" d="M55.6,125.6h-6.7l-1.1-7.7h-8.1l-1.1,7.7h-6.1l6.8-42.2h9.7L55.6,125.6z M40.4,112.3h6.4l-3.2-21.3
				L40.4,112.3z"/>
			<path class="st3" d="M80.8,93.1v1.5c0,4.3-1.3,7.1-4.3,8.5c3.6,1.4,4.9,4.6,4.9,9v3.4c0,6.5-3.4,10-10.1,10H60.9V83.4h10
				C77.8,83.4,80.8,86.6,80.8,93.1z M67.6,89.5v11.2h2.6c2.5,0,4-1.1,4-4.5v-2.4c0-3-1-4.3-3.4-4.3H67.6z M67.6,106.7v13h3.8
				c2.2,0,3.4-1,3.4-4.2v-3.7c0-3.9-1.3-5.1-4.3-5.1L67.6,106.7L67.6,106.7L67.6,106.7z"/>
			<path class="st3" d="M107,109.9v5.6c0,6.8-3.4,10.6-9.9,10.6c-6.5,0-9.9-3.9-9.9-10.6V93.6c0-6.8,3.4-10.6,9.9-10.6
				c6.5,0,9.9,3.9,9.9,10.6v4.1h-6.3v-4.5c0-3-1.3-4.2-3.4-4.2c-2.1,0-3.4,1.1-3.4,4.2v22.8c0,3,1.3,4.1,3.4,4.1
				c2.1,0,3.4-1.1,3.4-4.1v-6H107L107,109.9z"/>
			<path class="st3" d="M124.6,101.5h12.1v6h-12.1V101.5z"/>
			<path class="st3" d="M159.2,88.7c5.1,0,6.3-2.5,7.3-5.3h4.5v42.2h-6.6V93.4h-5.1V88.7L159.2,88.7z"/>
			<path class="st3" d="M191,89c-2.1,0-3.4,1.1-3.4,4.2v4.5h-6.3v-4.1c0-6.8,3.4-10.6,9.9-10.6c6.5,0,9.9,3.9,9.9,10.6
				c0,13.3-13.2,18.2-13.2,25.1c0,0.3,0,0.6,0.1,0.9h12.5v6h-19.2v-5.2c0-12.4,13.1-14.5,13.1-26.7C194.4,90,193.1,89,191,89z"/>
			<path class="st3" d="M220.3,93.8c0-3.8-1.3-4.8-3.4-4.8c-2.1,0-3.4,1.1-3.4,4.2v2.7h-6.3v-2.3c0-6.8,3.4-10.6,9.9-10.6
				c6.5,0,9.9,3.9,9.9,10.6v1.1c0,4.5-1.4,7.4-4.6,8.7c3.3,1.4,4.6,4.6,4.6,8.9v3.3c0,6.8-3.4,10.6-9.9,10.6
				c-6.5,0-9.9-3.9-9.9-10.6V112h6.3v3.9c0,3,1.3,4.2,3.4,4.2c2.1,0,3.4-1,3.4-4.8V112c0-3.9-1.3-5.4-4.3-5.4h-2.2v-6h2.6
				c2.5,0,4-1.1,4-4.5V93.8L220.3,93.8z"/>
			<path class="st3" d="M63.8,56.2c2.5,0,4.5,2,4.5,4.5c0,2.5-2,4.5-4.5,4.5c-2.5,0-4.5-2-4.5-4.5C59.3,58.2,61.3,56.2,63.8,56.2z"
				/>
			<path class="st3" d="M63.8,142.3c2.5,0,4.5,2,4.5,4.5c0,2.5-2,4.5-4.5,4.5c-2.5,0-4.5-2-4.5-4.5
				C59.3,144.3,61.3,142.3,63.8,142.3z"/>
			<path class="st3" d="M196.9,56.2c2.5,0,4.5,2,4.5,4.5c0,2.5-2,4.5-4.5,4.5c-2.5,0-4.5-2-4.5-4.5
				C192.4,58.2,194.5,56.2,196.9,56.2z"/>
			<path class="st3" d="M196.9,142.3c2.5,0,4.5,2,4.5,4.5c0,2.5-2,4.5-4.5,4.5c-2.5,0-4.5-2-4.5-4.5
				C192.4,144.3,194.5,142.3,196.9,142.3z"/>
		</g>
		<g id="XMLID_00000142890159033249086450000015443430851084262793_">
			<circle id="XMLID_00000021102703322668541440000007367721958995444882_" class="st4" cx="127.2" cy="51.7" r="3"/>
			<g id="XMLID_00000062907920897666696080000014381864305399335865_">
				<path id="XMLID_00000160871803676649876740000000809618477394257283_" class="st4" d="M140.6,68.6c-1-2.1-2.1-4.1-3.1-6.2
					c-0.3-0.5-0.7-0.8-1.3-0.8c-1.9,0-3.8,0-5.7,0c-0.1,0-0.3,0-0.4,0c-0.1-0.9-0.2-1.7-0.3-2.6l0,0c1,0.4,2,0.8,3,1.2
					c0.4,0.2,0.9,0.2,1.3,0c0.4-0.3,0.7-0.7,0.6-1.2c0-0.6-0.3-0.9-0.8-1.1c-1.5-0.6-2.9-1.2-4.4-1.8c-0.7-0.3-1.3-0.5-2-0.8
					c-0.2-0.1-0.4-0.1-0.5-0.1c0,0-0.2,0-0.2,0c-5.1,0.3-8.4,4.6-8.3,9c0.1,4.2,3.4,7.9,7.6,8.4c2.1,0.3,4.1-0.2,5.9-1.4
					c2.2-1.5,3.5-3.6,3.9-6.4c0.1,0.2,0.2,0.3,0.2,0.4c0.7,1.5,1.4,2.9,2.2,4.4c0.2,0.4,0.5,0.7,1,0.8c0.5,0.1,0.9-0.1,1.2-0.5
					C140.8,69.5,140.9,69.1,140.6,68.6z M129.3,69.7c-4,1.5-8.3-1.6-8.2-5.9c0-1.5,0.5-2.9,1.6-4c0.9-1,2.1-1.7,3.5-2
					c0.2-0.1,0.5-0.1,0.8-0.1c0.2,0,0.3,0.1,0.3,0.3c0.2,1.5,0.4,3.1,0.6,4.6c0,0.2,0,0.4,0.1,0.6c0.2,0.6,0.6,0.9,1.3,0.9
					c1.3,0,2.6,0,3.9,0c0.1,0,0.3,0,0.4,0C133.3,66.5,131.6,68.9,129.3,69.7z"/>
			</g>
		</g>
	</g>
</g>
</svg>
