<?xml version="1.0" encoding="utf-8"?>
<!-- Generator: Adobe Illustrator 16.0.0, SVG Export Plug-In . SVG Version: 6.00 Build 0)  -->
<!DOCTYPE svg PUBLIC "-//W3C//DTD SVG 1.1//EN" "http://www.w3.org/Graphics/SVG/1.1/DTD/svg11.dtd">
<svg version="1.1" id="圖層_5" xmlns="http://www.w3.org/2000/svg" xmlns:xlink="http://www.w3.org/1999/xlink" x="0px" y="0px"
	 width="120px" height="120px" viewBox="360.945 237.64 120 120" enable-background="new 360.945 237.64 120 120"
	 xml:space="preserve">
<g>
	<path fill="#FFFFFF" d="M449.041,270.974h-56.192c-1.052,0-1.903,0.853-1.903,1.906v49.524c0,1.053,0.852,1.902,1.903,1.902h56.192
		c1.052,0,1.904-0.85,1.904-1.902V272.88C450.945,271.827,450.093,270.974,449.041,270.974z M437.137,275.1
		c1.401,0,2.538,1.135,2.538,2.54s-1.137,2.541-2.538,2.541c-1.404,0-2.542-1.137-2.542-2.541S435.733,275.1,437.137,275.1z
		 M429.677,275.1c1.403,0,2.541,1.135,2.541,2.54s-1.138,2.541-2.541,2.541c-1.404,0-2.54-1.137-2.54-2.541
		S428.273,275.1,429.677,275.1z M447.135,320.498h-52.381v-36.187h52.381V320.498z M444.598,280.181
		c-1.405,0-2.542-1.137-2.542-2.541s1.137-2.54,2.542-2.54c1.401,0,2.536,1.135,2.536,2.54S446,280.181,444.598,280.181z"/>
	<rect x="400.233" y="290.128" fill="#FFFFFF" width="41.424" height="9.127"/>
	<g>
		<rect x="400.233" y="301.714" fill="#FFFFFF" width="11.844" height="1.578"/>
		<rect x="400.233" y="305.751" fill="#FFFFFF" width="11.844" height="1.578"/>
		<rect x="400.233" y="309.789" fill="#FFFFFF" width="11.844" height="1.578"/>
		<rect x="400.233" y="313.826" fill="#FFFFFF" width="11.844" height="1.578"/>
	</g>
	<g>
		<rect x="415.11" y="301.714" fill="#FFFFFF" width="11.846" height="1.578"/>
		<rect x="415.11" y="305.751" fill="#FFFFFF" width="11.846" height="1.578"/>
		<rect x="415.11" y="309.789" fill="#FFFFFF" width="11.846" height="1.578"/>
		<rect x="415.11" y="313.826" fill="#FFFFFF" width="11.846" height="1.578"/>
	</g>
	<g>
		<rect x="429.989" y="301.714" fill="#FFFFFF" width="11.844" height="1.578"/>
		<rect x="429.989" y="302.816" fill="#FFFFFF" width="11.844" height="11.311"/>
		<rect x="429.989" y="313.826" fill="#FFFFFF" width="11.844" height="1.578"/>
	</g>
	<rect x="413.318" y="274.449" fill="#FFFFFF" width="35.062" height="8.551"/>
</g>
</svg>
