<?xml version="1.0" encoding="utf-8"?>
<!-- Generator: Adobe Illustrator 16.0.0, SVG Export Plug-In . SVG Version: 6.00 Build 0)  -->
<!DOCTYPE svg PUBLIC "-//W3C//DTD SVG 1.1//EN" "http://www.w3.org/Graphics/SVG/1.1/DTD/svg11.dtd">
<svg version="1.1" id="圖層_2" xmlns="http://www.w3.org/2000/svg" xmlns:xlink="http://www.w3.org/1999/xlink" x="0px" y="0px"
	 width="120px" height="120px" viewBox="360.945 237.64 120 120" enable-background="new 360.945 237.64 120 120"
	 xml:space="preserve">
<g>
	<path fill="#FFFFFF" d="M403.185,280.618h4.415c0.668,0,1.21-0.541,1.21-1.208v-9.713c0-0.665-0.542-1.201-1.21-1.201h-4.415
		c-0.666,0-1.211,0.537-1.211,1.201v9.713C401.974,280.077,402.519,280.618,403.185,280.618z"/>
	<path fill="#FFFFFF" d="M434.299,280.618h4.411c0.671,0,1.208-0.541,1.208-1.208v-9.713c0-0.665-0.537-1.201-1.208-1.201h-4.411
		c-0.667,0-1.208,0.537-1.208,1.201v9.713C433.091,280.077,433.632,280.618,434.299,280.618z"/>
	<path fill="#FFFFFF" d="M443.916,273.136h-1.555v6.273c0,2.015-1.637,3.653-3.651,3.653h-4.411c-2.01,0-3.655-1.639-3.655-3.653
		v-6.273h-19.389v6.273c0,2.015-1.646,3.653-3.654,3.653h-4.415c-2.012,0-3.651-1.639-3.651-3.653v-6.273h-1.555
		c-3.883,0-7.035,3.151-7.035,7.029V293.2v26.549c0,3.88,3.151,7.037,7.035,7.037h45.936c3.884,0,7.029-3.157,7.029-7.037V293.2
		v-13.035C450.945,276.287,447.8,273.136,443.916,273.136z M446.504,319.749c0,1.427-1.161,2.579-2.588,2.579H397.98
		c-1.43,0-2.583-1.152-2.583-2.579V293.2h51.106V319.749z"/>
	<rect x="399.265" y="297.96" fill="#FFFFFF" width="11.763" height="4.346"/>
	<rect x="414.641" y="297.96" fill="#FFFFFF" width="11.759" height="4.346"/>
	<rect x="430.015" y="297.96" fill="#FFFFFF" width="11.766" height="4.346"/>
	<rect x="399.265" y="305.388" fill="#FFFFFF" width="11.763" height="4.346"/>
	<rect x="414.641" y="305.388" fill="#FFFFFF" width="11.759" height="4.346"/>
	<rect x="430.015" y="305.388" fill="#FFFFFF" width="11.766" height="4.346"/>
	<rect x="399.265" y="312.805" fill="#FFFFFF" width="11.763" height="4.343"/>
	<rect x="414.641" y="312.805" fill="#FFFFFF" width="11.759" height="4.343"/>
	<rect x="430.015" y="312.805" fill="#FFFFFF" width="11.766" height="4.343"/>
</g>
</svg>
