<?xml version="1.0" encoding="utf-8"?>
<!-- Generator: Adobe Illustrator 16.0.0, SVG Export Plug-In . SVG Version: 6.00 Build 0)  -->
<!DOCTYPE svg PUBLIC "-//W3C//DTD SVG 1.1//EN" "http://www.w3.org/Graphics/SVG/1.1/DTD/svg11.dtd">
<svg version="1.1" id="圖層_1" xmlns="http://www.w3.org/2000/svg" xmlns:xlink="http://www.w3.org/1999/xlink" x="0px" y="0px"
	 width="120px" height="120px" viewBox="360.945 237.64 120 120" enable-background="new 360.945 237.64 120 120"
	 xml:space="preserve">
<g>
	<polygon fill="#FFFFFF" points="417.739,288.111 424.14,288.11 424.14,296.187 430.467,294.338 420.948,310.578 411.429,294.333 
		417.749,296.187 	"/>
	<path fill="#FFFFFF" d="M449.045,270.974h-56.198c-1.052,0-1.902,0.852-1.902,1.904v49.524c0,1.055,0.85,1.905,1.902,1.905h56.198
		c1.05,0,1.9-0.851,1.9-1.905v-7.612v-4.034v-17.613v-3.352v-16.914C450.947,271.827,450.094,270.974,449.045,270.974z
		 M444.498,275.078c1.457,0,2.641,1.185,2.641,2.641c0,1.456-1.184,2.64-2.641,2.64s-2.64-1.184-2.64-2.64
		C441.858,276.263,443.041,275.078,444.498,275.078z M437.097,275.078c1.459,0,2.643,1.185,2.643,2.641
		c0,1.456-1.184,2.64-2.643,2.64c-1.457,0-2.639-1.184-2.639-2.64C434.459,276.263,435.638,275.078,437.097,275.078z
		 M429.752,275.078c1.459,0,2.643,1.185,2.643,2.641c0,1.456-1.184,2.64-2.643,2.64c-1.455,0-2.638-1.184-2.638-2.64
		C427.114,276.263,428.297,275.078,429.752,275.078z M447.138,293.144v17.614v4.031v5.709h-52.386V284.31h52.386v5.481V293.144
		L447.138,293.144z"/>
	<rect x="400.235" y="311.552" fill="#FFFFFF" width="41.427" height="5.419"/>
</g>
</svg>
