<?xml version="1.0" encoding="utf-8"?>
<!-- Generator: Adobe Illustrator 16.0.0, SVG Export Plug-In . SVG Version: 6.00 Build 0)  -->
<!DOCTYPE svg PUBLIC "-//W3C//DTD SVG 1.1//EN" "http://www.w3.org/Graphics/SVG/1.1/DTD/svg11.dtd">
<svg version="1.1" id="圖層_4" xmlns="http://www.w3.org/2000/svg" xmlns:xlink="http://www.w3.org/1999/xlink" x="0px" y="0px"
	 width="120px" height="120px" viewBox="360.945 237.64 120 120" enable-background="new 360.945 237.64 120 120"
	 xml:space="preserve">
<g>
	<path fill="#FFFFFF" d="M441.144,295.927v9.753v9.853v10.118h9.801v-29.724H441.144z M446.052,303.417
		c-1.183,0-2.139-0.959-2.139-2.139c0-1.182,0.956-2.14,2.139-2.14c1.181,0,2.14,0.958,2.14,2.14
		C448.191,302.458,447.232,303.417,446.052,303.417z"/>
	<path fill="#FFFFFF" d="M411.602,290.135c0,5.195,4.226,9.421,9.42,9.421c5.192,0,9.417-4.226,9.417-9.421
		c0-5.194-4.225-9.419-9.417-9.419C415.827,280.716,411.602,284.941,411.602,290.135z M421.022,282.805
		c4.041,0,7.329,3.288,7.329,7.33c0,4.042-3.288,7.331-7.329,7.331c-4.044,0-7.332-3.288-7.332-7.331
		C413.69,286.093,416.978,282.805,421.022,282.805z"/>
	<path fill="#FFFFFF" d="M418.778,294.575c0.526,0.333,1.147,0.542,1.846,0.625v0.22c0,0.329,0.146,0.521,0.273,0.626
		c0.153,0.127,0.336,0.193,0.528,0.193c0.186,0,0.365-0.062,0.517-0.176c0.198-0.143,0.312-0.377,0.312-0.643v-0.246
		c0.681-0.121,1.206-0.388,1.568-0.791c0.441-0.484,0.686-1.022,0.723-1.584c0.027-0.293,0.012-0.6-0.049-0.923
		c-0.056-0.336-0.184-0.667-0.39-0.989c-0.207-0.308-0.495-0.578-0.845-0.795c-0.273-0.176-0.604-0.313-1.008-0.418v-2.871
		c0.141,0.101,0.265,0.217,0.372,0.347c0.101,0.124,0.186,0.271,0.234,0.42c0.057,0.181,0.091,0.352,0.108,0.53
		c0.053,0.429,0.393,0.714,0.786,0.655c0.346-0.041,0.607-0.3,0.696-0.795c-0.021-0.815-0.286-1.481-0.792-1.979
		c-0.382-0.377-0.854-0.637-1.405-0.776v-0.352c0-0.237-0.096-0.453-0.297-0.631c-0.313-0.25-0.726-0.276-1.092,0.034
		c-0.11,0.106-0.243,0.297-0.243,0.597v0.268c-0.303,0.042-0.59,0.115-0.87,0.218c-0.442,0.171-0.798,0.388-1.083,0.664
		c-0.292,0.279-0.516,0.612-0.675,0.999c-0.152,0.393-0.208,0.806-0.167,1.234c0.089,0.772,0.417,1.413,0.985,1.906
		c0.476,0.396,1.083,0.657,1.811,0.771l0.002,2.824c-0.435-0.067-0.78-0.196-1.031-0.386c-0.335-0.254-0.542-0.556-0.619-0.874
		c-0.05-0.379-0.351-0.63-0.741-0.641c-0.301-0.01-0.515,0.137-0.596,0.234c-0.083,0.095-0.206,0.303-0.136,0.593
		C417.658,293.492,418.087,294.135,418.778,294.575z M419.356,288.138c-0.021-0.422,0.115-0.782,0.413-1.097
		c0.207-0.216,0.492-0.365,0.853-0.445v2.806c-0.149-0.04-0.277-0.087-0.384-0.139c-0.245-0.125-0.425-0.247-0.561-0.38
		c-0.103-0.099-0.182-0.214-0.223-0.317C419.403,288.411,419.37,288.271,419.356,288.138z M423.071,292.748
		c0,0.013-0.002,0.083-0.057,0.245c-0.03,0.103-0.093,0.211-0.166,0.31c-0.089,0.105-0.228,0.213-0.397,0.305
		c-0.057,0.03-0.12,0.057-0.197,0.081v-2.47c0.223,0.094,0.396,0.211,0.518,0.351c0.213,0.248,0.312,0.639,0.3,1.165
		C423.071,292.74,423.071,292.745,423.071,292.748z"/>
	<path fill="#FFFFFF" d="M402.915,292.6c3.64,0,6.602-2.961,6.602-6.601c0-3.641-2.962-6.602-6.602-6.602s-6.601,2.961-6.601,6.602
		C396.314,289.638,399.276,292.6,402.915,292.6z M402.915,281.485c2.489,0,4.514,2.025,4.514,4.514c0,2.488-2.025,4.512-4.514,4.512
		c-2.488,0-4.51-2.024-4.51-4.512C398.405,283.51,400.427,281.485,402.915,281.485z"/>
	<path fill="#FFFFFF" d="M413.405,279.969c2.85,0,5.169-2.319,5.169-5.17c0-2.85-2.319-5.169-5.169-5.169s-5.169,2.319-5.169,5.169
		C408.236,277.65,410.555,279.969,413.405,279.969z M413.405,271.719c1.698,0,3.081,1.381,3.081,3.08
		c0,1.699-1.382,3.081-3.081,3.081s-3.081-1.382-3.081-3.081C410.324,273.1,411.707,271.719,413.405,271.719z"/>
	<path fill="#FFFFFF" d="M418.209,302.675l-1.84-1.142c-1.326-0.805-2.938-0.966-4.419-0.438l-0.858,0.358l4.303,2.37
		C416.301,303.444,417.248,303.056,418.209,302.675z"/>
	<path fill="#FFFFFF" d="M401.37,301.651l-1.015,0.473l9.233,4.256c0.618-0.284,1.645-0.752,2.891-1.301l-5.998-3.305
		C404.913,300.942,402.997,300.888,401.37,301.651z"/>
	<path fill="#FFFFFF" d="M437.004,305.5c-0.055-0.035-5.527-3.34-9.332-3.145c-3.226,0.169-13.58,4.693-17.444,6.491
		c-0.286,0.209-1.305,1.001-2.065,2.093c-0.353,0.506-0.142,0.995-0.037,1.184c0.194,0.342,0.596,0.703,1.193,0.651l16.403-1.164
		c0.684-0.051,1.291,0.472,1.342,1.161c0.049,0.69-0.471,1.29-1.16,1.339l-16.406,1.165c-1.493,0.101-2.825-0.631-3.552-1.916
		c-0.701-1.232-0.637-2.71,0.161-3.854c0.376-0.541,0.798-1.021,1.194-1.422l-10.352-4.771c-0.002-0.002-0.006-0.002-0.008-0.004
		l-0.864-0.397c-1.7-0.679-3.647-0.406-5.132,0.658l19.417,15.151c2.372,1.973,5.507,2.59,8.416,1.679l18.239-4.825
		c0.104-0.027,0.212-0.041,0.32-0.041h1.301v-9.853h-0.982C437.426,305.68,437.201,305.619,437.004,305.5z"/>
	<circle fill="#FFFFFF" cx="413.754" cy="274.574" r="3.702"/>
	<ellipse fill="#FFFFFF" cx="403.012" cy="286.399" rx="5.029" ry="5.683"/>
</g>
</svg>
