<?xml version="1.0" encoding="utf-8"?>
<!-- Generator: Adobe Illustrator 16.0.0, SVG Export Plug-In . SVG Version: 6.00 Build 0)  -->
<!DOCTYPE svg PUBLIC "-//W3C//DTD SVG 1.1//EN" "http://www.w3.org/Graphics/SVG/1.1/DTD/svg11.dtd">
<svg version="1.1" id="圖層_8" xmlns="http://www.w3.org/2000/svg" xmlns:xlink="http://www.w3.org/1999/xlink" x="0px" y="0px"
	 width="120px" height="120px" viewBox="0 0 120 120" enable-background="new 0 0 120 120" xml:space="preserve">
<g>
	<polygon fill="#FFFFFF" points="49.158,54.874 49.158,56.947 72.951,56.947 72.951,54.874 49.158,54.874 	"/>
	<polygon fill="#FFFFFF" points="43.157,48.483 43.157,50.557 72.951,50.557 72.951,48.483 43.157,48.483 	"/>
	<polygon fill="#FFFFFF" points="35.952,41.895 35.952,43.969 72.951,43.969 72.951,41.895 35.952,41.895 	"/>
	<polygon fill="#FFFFFF" points="34.534,47.65 34.534,61.791 37.652,57.463 42.121,66.312 44.715,65.004 40.315,56.29 
		44.672,56.055 34.534,47.65 	"/>
	<path fill="#FFFFFF" d="M77.484,60.578v1.678c0.664,0.344,1.148,1.436,1.148,2.73s-0.484,2.389-1.148,2.732v2.15
		c1.793-0.084,3.408-0.918,4.6-2.221c1.268-1.393,2.051-3.312,2.051-5.439c0-0.303-0.016-0.602-0.047-0.896
		C81.898,60.871,79.699,60.613,77.484,60.578L77.484,60.578z"/>
	<path fill="#FFFFFF" d="M75.82,56.708h-0.49l-0.604,3.136h4.121l-0.605-3.136h-0.5c0.027-0.641,0.127-1.11,0.289-1.44
		c0.193-0.394,0.492-0.562,0.867-0.585c1.021-0.061,2.594,0.582,4.279,1.272l0.004,0.002v0v-0.001
		c0.576,0.235,1.164,0.475,1.699,0.679c0.574,0.218,1.156,0.422,1.742,0.592c1.701,0.496,3.363,0.694,4.805,0.149
		c1.469-0.553,4.346-2.563,5.064-5.04l0.137-0.468l-0.467-0.136l-0.906-0.263l-0.469-0.136l-0.137,0.469
		c-0.512,1.758-3.006,3.375-3.986,3.739v0c-1.006,0.373-2.23,0.213-3.506-0.158c-1.074-0.313-2.189-0.768-3.256-1.205
		c-0.939-0.385-1.85-0.757-2.682-1.019c-0.877-0.275-1.697-0.441-2.434-0.396c-1.004,0.06-1.812,0.451-2.344,1.342
		C76.078,54.718,75.861,55.565,75.82,56.708L75.82,56.708z"/>
	<path fill="#FFFFFF" d="M86.4,61.688c-0.289-0.072-0.578-0.141-0.869-0.205c0.02,0.258,0.029,0.518,0.029,0.781
		c0,2.59-0.961,4.938-2.512,6.639c-1.564,1.715-3.727,2.773-6.117,2.773s-4.553-1.059-6.117-2.773
		c-1.551-1.701-2.51-4.049-2.51-6.639c0-0.268,0.008-0.535,0.027-0.797c-0.283,0.07-0.568,0.143-0.854,0.221v18.436
		c0,5.203,4.258,9.461,9.461,9.461l0,0c5.203,0,9.461-4.258,9.461-9.461V61.688L86.4,61.688z"/>
	<path fill="#FFFFFF" d="M69.9,61.287c-0.033,0.301-0.049,0.609-0.049,0.922c0,2.127,0.783,4.047,2.053,5.439
		c1.135,1.242,2.66,2.062,4.355,2.207v-2.121c-0.682-0.324-1.184-1.432-1.184-2.748c0-1.314,0.502-2.426,1.184-2.748v-1.66
		C74.152,60.6,72.033,60.828,69.9,61.287L69.9,61.287z"/>
	<path fill="#FFFFFF" d="M47.094,77.754h17.285v3.203c0,0.955,0.109,1.883,0.312,2.777H42.775v-1.662
		C42.775,79.697,44.719,77.754,47.094,77.754L47.094,77.754z"/>
	<g>
		<path fill="#FFFFFF" d="M27.808,39.412c0-0.324,0.029-0.641,0.085-0.946c0.168-0.916,0.574-1.73,1.141-2.358
			c0.12-0.133,0.256-0.244,0.39-0.359c0.646-0.552,1.433-0.895,2.284-0.895h36.869h16.963c1.027,0,1.977,0.48,2.674,1.254
			c0.756,0.837,1.227,2.006,1.227,3.304l0.055,13.81c0.307-0.011,0.588-0.053,0.822-0.141c0.807-0.299,2.986-1.75,3.373-3.081
			l0.137-0.469l0.051-0.171v-9.948c0-2.43-0.908-4.648-2.371-6.268c-1.518-1.683-3.629-2.727-5.967-2.727H68.576H31.708
			c-2.339,0-4.449,1.044-5.97,2.727c-0.912,1.012-1.608,2.258-2.003,3.644c-0.158,0.554-0.267,1.131-0.322,1.724
			c-0.028,0.296-0.042,0.597-0.042,0.9v10.47v17.314c0,2.428,0.908,4.648,2.37,6.266c1.517,1.682,3.629,2.727,5.967,2.727h21.16
			h11.46h0.051v-4.436h-0.051h-11.46h-21.16c-1.028,0-1.976-0.48-2.674-1.256c-0.756-0.836-1.226-2.004-1.226-3.301V53.494V39.412z"
			/>
		<path fill="#FFFFFF" d="M91.781,59.542c-0.686,0.259-1.449,0.391-2.27,0.391c-0.006,0-0.012-0.001-0.018-0.001v15.17
			c0.746-0.436,1.424-0.988,2.012-1.641c1.463-1.617,2.371-3.838,2.371-6.266v-8.824C93.072,58.94,92.309,59.343,91.781,59.542z"/>
	</g>
</g>
</svg>
