<?xml version="1.0" encoding="utf-8"?>
<!-- Generator: Adobe Illustrator 16.0.0, SVG Export Plug-In . SVG Version: 6.00 Build 0)  -->
<!DOCTYPE svg PUBLIC "-//W3C//DTD SVG 1.1//EN" "http://www.w3.org/Graphics/SVG/1.1/DTD/svg11.dtd">
<svg version="1.1" id="圖層_6" xmlns="http://www.w3.org/2000/svg" xmlns:xlink="http://www.w3.org/1999/xlink" x="0px" y="0px"
	 width="120px" height="120px" viewBox="360.945 237.64 120 120" enable-background="new 360.945 237.64 120 120"
	 xml:space="preserve">
<g>
	<path fill="#FFFFFF" d="M412.315,284.512c0,0.719-0.581,1.3-1.3,1.3h-5.039c-0.719,0-1.3-0.582-1.3-1.3v-4.063
		c0-0.719,0.582-1.3,1.3-1.3h5.039c0.719,0,1.3,0.582,1.3,1.3V284.512z"/>
	<path fill="#FFFFFF" d="M412.315,293.126c0,0.718-0.581,1.3-1.3,1.3h-5.039c-0.719,0-1.3-0.582-1.3-1.3v-4.063
		c0-0.719,0.582-1.3,1.3-1.3h5.039c0.719,0,1.3,0.582,1.3,1.3V293.126z"/>
	<path fill="#FFFFFF" d="M410.593,299.591c-0.418-0.891-0.42-1.889-0.005-2.803c0.067-0.147,0.164-0.277,0.25-0.411h-4.861
		c-0.719,0-1.3,0.582-1.3,1.3v4.063c0,0.719,0.582,1.301,1.3,1.301h5.039c0.273,0,0.513-0.104,0.721-0.249
		C411.221,300.965,410.635,299.68,410.593,299.591z"/>
	<path fill="#FFFFFF" d="M415.619,293.726c0.696,0,1.432,0.18,2.156,0.554v-6.517h-1.884c-0.719,0-1.3,0.582-1.3,1.3v4.063
		c0,0.256,0.094,0.482,0.224,0.686C415.066,293.761,415.335,293.726,415.619,293.726z"/>
	<path fill="#FFFFFF" d="M415.891,285.812h1.884v-0.159c0-2.561,1.959-4.651,4.454-4.913v-0.292c0-0.719-0.582-1.3-1.3-1.3h-5.039
		c-0.719,0-1.3,0.582-1.3,1.3v4.063C414.591,285.231,415.172,285.812,415.891,285.812z"/>
	<path fill="#FFFFFF" d="M420.393,320.55l-2.603-2.561c-0.171-0.165-0.333-0.348-0.487-0.546c0.207,0.368,0.334,0.785,0.334,1.237
		c0,1.406-1.139,2.552-2.551,2.552c-1.399,0-2.545-1.146-2.545-2.552c0-1.407,1.146-2.547,2.545-2.547c0.797,0,1.5,0.37,1.967,0.941
		c-0.083-0.127-0.171-0.241-0.248-0.378c-0.93-1.133-1.697-2.248-2.328-3.345H402.58v-37.067h25.017v8.341
		c0.071,0.332,0.109,0.674,0.109,1.027v2.839c0.137-0.012,0.274-0.017,0.411-0.017c0.49,0,0.961,0.079,1.409,0.21v-16.648
		c0-2.428-1.973-4.398-4.399-4.398h-20.075c-2.432,0-4.401,1.971-4.401,4.398v48.034c0,2.43,1.969,4.403,4.401,4.403h15.341V320.55z
		 M411.307,270.845h7.563c0.212,0,0.393,0.261,0.393,0.577c0,0.328-0.18,0.577-0.393,0.577h-7.563c-0.217,0-0.386-0.249-0.386-0.577
		C410.921,271.105,411.09,270.845,411.307,270.845z"/>
	<path fill="#FFFFFF" d="M441.234,306.746c0.011-0.325,0-0.653-0.027-0.973v-7.032c0-1.305-1.06-2.369-2.359-2.369
		c-1.303,0-2.369,1.064-2.369,2.369v0.541c-0.206-0.076-0.414-0.142-0.63-0.203v-3.558c0-1.303-1.062-2.369-2.367-2.369
		s-2.364,1.066-2.364,2.369v2.039c-0.213-0.074-0.422-0.147-0.635-0.221v-3.898c0-1.306-1.059-2.364-2.364-2.364
		s-2.367,1.058-2.367,2.364v3.02c-0.221,0.038-0.434,0.084-0.645,0.155v-10.961c0-1.3-1.062-2.364-2.364-2.364
		c-1.307,0-2.366,1.064-2.366,2.364v19.535c-0.518-1.123-0.531-2.547-0.759-3.602c-0.871-3.997-3.088-5.627-4.447-5.195
		c-0.315,0.091-2.732,1.008-2.219,2.105c0.315,0.675,1.955,4.475,2.146,8.601c0.137,2.946,1.989,5.879,3.875,8.137
		c0.167,0.33,0.371,0.64,0.643,0.901l3.379,3.324v8.18h15.905v-8.393c1.231-1.88,2.016-4.193,2.11-6.285
		c0.073-2.042,0.147-4.079,0.221-6.118c0.005-0.022-0.003-0.038,0-0.061C441.229,306.776,441.234,306.76,441.234,306.746z"/>
</g>
</svg>
