<?xml version="1.0" encoding="utf-8"?>
<!-- Generator: Adobe Illustrator 16.0.0, SVG Export Plug-In . SVG Version: 6.00 Build 0)  -->
<!DOCTYPE svg PUBLIC "-//W3C//DTD SVG 1.1//EN" "http://www.w3.org/Graphics/SVG/1.1/DTD/svg11.dtd">
<svg version="1.1" id="圖層_3" xmlns="http://www.w3.org/2000/svg" xmlns:xlink="http://www.w3.org/1999/xlink" x="0px" y="0px"
	 width="120px" height="120px" viewBox="360.945 237.64 120 120" enable-background="new 360.945 237.64 120 120"
	 xml:space="preserve">
<g>
	<path fill="#FFFFFF" d="M449.042,269.242h-56.193c-1.053,0-1.903,0.852-1.903,1.903v49.525c0,1.054,0.85,1.904,1.903,1.904h11.851
		l2.14-2.144c-0.077-0.537-0.153-1.1-0.229-1.666h-11.859v-36.187h52.384v36.187h-7.225c-0.173,1.042-0.649,2.006-1.41,2.768
		l-1.042,1.042h11.583c1.05,0,1.903-0.851,1.903-1.904v-49.525C450.945,270.094,450.092,269.242,449.042,269.242z M429.677,278.446
		c-1.405,0-2.537-1.136-2.537-2.54c0-1.405,1.132-2.54,2.537-2.54c1.404,0,2.542,1.135,2.542,2.54
		C432.219,277.311,431.081,278.446,429.677,278.446z M437.139,278.446c-1.405,0-2.543-1.136-2.543-2.54
		c0-1.405,1.138-2.54,2.543-2.54c1.401,0,2.536,1.135,2.536,2.54C439.676,277.311,438.541,278.446,437.139,278.446z
		 M444.598,278.446c-1.406,0-2.542-1.136-2.542-2.54c0-1.405,1.136-2.54,2.542-2.54c1.401,0,2.537,1.135,2.537,2.54
		C447.135,277.311,446,278.446,444.598,278.446z"/>
	<path fill="#FFFFFF" d="M429.988,324.807c0.208-0.192,0.392-0.393,0.564-0.593l4.327-4.328c0.789-0.788,0.79-2.072,0-2.862
		c-0.79-0.792-2.074-0.792-2.862-0.003l-0.389,0.389c-0.073-0.176-0.158-0.345-0.255-0.509l2.206-2.208
		c0.796-0.795,0.796-2.076,0.006-2.866c-0.789-0.792-2.078-0.792-2.869,0l-1.289,1.289c-0.086-0.17-0.167-0.344-0.25-0.514
		l2.42-2.421c0.787-0.785,0.787-2.072-0.002-2.861c-0.79-0.79-2.076-0.79-2.864-0.005l-1.888,1.89
		c-0.156-0.115-0.32-0.214-0.483-0.302l6.633-6.632c0.791-0.792,0.791-2.076,0-2.867c-0.79-0.789-2.074-0.789-2.862,0l-10.498,10.5
		c-4.245,3.581-5.456,0.162-6.762-1.415c-2.235-2.696-4.569-3.053-5.429-2.193c-0.199,0.199-1.678,1.854-0.856,2.479
		c0.504,0.384,3.589,2.93,3.737,5.729c0.113,2.136,0.605,5.553,0.83,7.049l-4.859,4.861l9.629,9.625l5.138-5.137
		c1.883-0.388,3.762-1.314,5.087-2.526C427.429,327.185,428.707,325.998,429.988,324.807z"/>
	<path fill-rule="evenodd" clip-rule="evenodd" fill="#FFFFFF" d="M435.73,293.906c-1.838-1.235-4.006-1.608-6.021-1.214
		c-2.015,0.396-3.879,1.561-5.115,3.4c-1.235,1.837-1.609,4.005-1.216,6.019c0.051,0.251,0.111,0.5,0.184,0.744
		c0.986-1.28,2.029-2.506,3.114-3.633c0.135-0.456,0.339-0.9,0.618-1.316c0.734-1.092,1.843-1.785,3.043-2.019
		c1.196-0.236,2.484-0.013,3.578,0.722c1.092,0.735,1.784,1.842,2.019,3.042c0.234,1.197,0.015,2.484-0.721,3.578
		c-0.298,0.443-0.657,0.819-1.057,1.128c-0.65,1.456-1.394,2.858-2.227,4.207c0.29-0.024,0.58-0.065,0.868-0.122
		c2.016-0.395,3.881-1.56,5.116-3.399c1.235-1.838,1.609-4.005,1.214-6.021C438.732,297.008,437.568,295.143,435.73,293.906
		L435.73,293.906z"/>
	<path fill-rule="evenodd" clip-rule="evenodd" fill="#FFFFFF" d="M439.256,288.66c-3.288-2.209-7.16-2.876-10.764-2.171
		c-3.604,0.708-6.937,2.789-9.146,6.077c-2.209,3.286-2.877,7.16-2.169,10.761c0.123,0.63,0.288,1.249,0.495,1.857l3.269-0.536
		c-0.251-0.63-0.44-1.282-0.571-1.946c-0.547-2.785-0.031-5.78,1.677-8.321c1.709-2.542,4.287-4.151,7.071-4.698
		c2.785-0.547,5.779-0.031,8.321,1.677c2.541,1.708,4.151,4.286,4.698,7.071c0.546,2.785,0.03,5.779-1.677,8.321
		c-1.709,2.543-4.287,4.153-7.073,4.698c-0.082,0.016-0.164,0.031-0.245,0.047l0.597,0.635l-0.674,1.674
		c-0.014,0.031-0.027,0.065-0.04,0.097l0.739,0.786c0.083-0.013,0.168-0.029,0.251-0.045c3.603-0.706,6.938-2.787,9.146-6.075
		c2.21-3.288,2.875-7.161,2.17-10.764C444.625,294.203,442.543,290.868,439.256,288.66L439.256,288.66z"/>
</g>
</svg>
