<?xml version="1.0" encoding="utf-8"?>
<!-- Generator: Adobe Illustrator 16.0.0, SVG Export Plug-In . SVG Version: 6.00 Build 0)  -->
<!DOCTYPE svg PUBLIC "-//W3C//DTD SVG 1.1//EN" "http://www.w3.org/Graphics/SVG/1.1/DTD/svg11.dtd">
<svg version="1.1" id="圖層_7" xmlns="http://www.w3.org/2000/svg" xmlns:xlink="http://www.w3.org/1999/xlink" x="0px" y="0px"
	 width="120px" height="120px" viewBox="360.945 237.64 120 120" enable-background="new 360.945 237.64 120 120"
	 xml:space="preserve">
<g>
	<path fill="#FFFFFF" d="M432.036,281.753c-0.177-0.261-0.419-0.488-0.718-0.674c-0.235-0.154-0.524-0.271-0.876-0.361v-2.531
		c0.138,0.097,0.26,0.207,0.363,0.332c0.089,0.107,0.16,0.233,0.207,0.374c0.048,0.145,0.078,0.292,0.093,0.449
		c0.041,0.357,0.343,0.571,0.648,0.544c0.287-0.035,0.497-0.244,0.574-0.658c-0.021-0.692-0.244-1.257-0.672-1.679
		c-0.329-0.326-0.735-0.547-1.214-0.666v-0.322c0-0.196-0.08-0.376-0.243-0.521c-0.271-0.21-0.609-0.226-0.904,0.027
		c-0.135,0.129-0.204,0.299-0.204,0.494v0.252c-0.266,0.036-0.515,0.098-0.758,0.189c-0.378,0.144-0.682,0.33-0.919,0.563
		c-0.245,0.231-0.439,0.514-0.574,0.846c-0.133,0.33-0.182,0.679-0.146,1.049c0.073,0.655,0.352,1.2,0.836,1.62
		c0.405,0.34,0.93,0.561,1.561,0.659l0.002,2.473c-0.391-0.057-0.7-0.17-0.924-0.34c-0.292-0.222-0.472-0.486-0.543-0.761
		c-0.037-0.314-0.282-0.524-0.61-0.534c-0.252-0.019-0.427,0.115-0.493,0.194s-0.165,0.251-0.105,0.483
		c0.132,0.707,0.496,1.254,1.081,1.628c0.455,0.285,0.989,0.464,1.595,0.535v0.211c0,0.211,0.081,0.395,0.229,0.52
		c0.128,0.103,0.278,0.159,0.436,0.159c0.152,0,0.303-0.053,0.43-0.149c0.163-0.118,0.256-0.312,0.256-0.53v-0.231
		c0.584-0.102,1.038-0.329,1.354-0.677c0.372-0.411,0.578-0.867,0.611-1.343c0.024-0.255,0.01-0.515-0.042-0.791
		C432.317,282.301,432.207,282.025,432.036,281.753z M430.442,284.176v-2.189c0.211,0.085,0.374,0.192,0.488,0.321
		c0.185,0.216,0.273,0.56,0.264,1.019c0,0.003,0,0.007,0,0.009c0,0.012-0.001,0.077-0.05,0.22c-0.026,0.09-0.081,0.186-0.146,0.272
		c-0.057,0.065-0.16,0.164-0.354,0.27C430.589,284.128,430.52,284.155,430.442,284.176z M427.957,279.382
		c-0.019-0.373,0.102-0.687,0.361-0.959c0.186-0.195,0.443-0.329,0.772-0.397v2.471c-0.144-0.036-0.263-0.081-0.361-0.13
		c-0.218-0.109-0.374-0.214-0.492-0.331c-0.091-0.086-0.158-0.185-0.197-0.285C427.996,279.625,427.969,279.504,427.957,279.382z"/>
	<path fill="#FFFFFF" d="M440.527,267.64h-39.164c-3.65,0-6.61,2.959-6.61,6.61v46.778c0,3.651,2.96,6.611,6.61,6.611h39.164
		c3.65,0,6.61-2.96,6.61-6.611V274.25C447.137,270.6,444.177,267.64,440.527,267.64z M403.121,274.159h33.975v13.871h-33.975
		V274.159z M405.628,317.936c-1.775,0-3.213-1.439-3.213-3.214s1.438-3.213,3.213-3.213c1.773,0,3.213,1.438,3.213,3.213
		S407.401,317.936,405.628,317.936z M405.628,308.421c-1.775,0-3.213-1.439-3.213-3.213c0-1.774,1.438-3.213,3.213-3.213
		c1.773,0,3.213,1.438,3.213,3.213C408.841,306.982,407.401,308.421,405.628,308.421z M405.628,298.908
		c-1.775,0-3.213-1.438-3.213-3.214c0-1.774,1.438-3.212,3.213-3.212c1.773,0,3.213,1.438,3.213,3.212
		C408.841,297.47,407.401,298.908,405.628,298.908z M414.882,317.936c-1.775,0-3.213-1.439-3.213-3.214s1.438-3.213,3.213-3.213
		c1.774,0,3.213,1.438,3.213,3.213S416.656,317.936,414.882,317.936z M414.882,308.421c-1.775,0-3.213-1.439-3.213-3.213
		c0-1.774,1.438-3.213,3.213-3.213c1.774,0,3.213,1.438,3.213,3.213C418.095,306.982,416.656,308.421,414.882,308.421z
		 M414.882,298.908c-1.775,0-3.213-1.438-3.213-3.214c0-1.774,1.438-3.212,3.213-3.212c1.774,0,3.213,1.438,3.213,3.212
		C418.095,297.47,416.656,298.908,414.882,298.908z M424.136,317.936c-1.773,0-3.213-1.439-3.213-3.214s1.439-3.213,3.213-3.213
		c1.775,0,3.214,1.438,3.214,3.213S425.912,317.936,424.136,317.936z M424.136,308.421c-1.773,0-3.213-1.439-3.213-3.213
		c0-1.774,1.439-3.213,3.213-3.213c1.775,0,3.214,1.438,3.214,3.213C427.35,306.982,425.912,308.421,424.136,308.421z
		 M424.136,298.908c-1.773,0-3.213-1.438-3.213-3.214c0-1.774,1.439-3.212,3.213-3.212c1.775,0,3.214,1.438,3.214,3.212
		C427.35,297.47,425.912,298.908,424.136,298.908z M437.802,317.936h-5.753v-6.572h5.753V317.936z M437.802,307.113h-5.753v-14.631
		h5.753V307.113z"/>
	<circle fill="#FFFFFF" cx="420.588" cy="281.535" r="2.724"/>
	<circle fill="#FFFFFF" cx="411.838" cy="281.535" r="2.724"/>
	<path fill="#FFFFFF" d="M403.312,272.942c0,1.798-1.458,3.257-3.257,3.257h-2.046c-1.798,0-3.256-1.458-3.256-3.257v-2.045
		c0-1.798,1.458-3.257,3.256-3.257h2.046c1.798,0,3.257,1.458,3.257,3.257V272.942z"/>
	<path fill="#FFFFFF" d="M447.137,272.942c0,1.798-1.458,3.257-3.256,3.257h-2.047c-1.798,0-3.256-1.458-3.256-3.257v-2.045
		c0-1.798,1.458-3.257,3.256-3.257h2.047c1.798,0,3.256,1.458,3.256,3.257V272.942z"/>
	<path fill="#FFFFFF" d="M403.312,324.383c0,1.798-1.458,3.257-3.257,3.257h-2.046c-1.798,0-3.256-1.459-3.256-3.257v-2.045
		c0-1.799,1.458-3.258,3.256-3.258h2.046c1.798,0,3.257,1.459,3.257,3.258V324.383z"/>
	<path fill="#FFFFFF" d="M447.137,324.383c0,1.798-1.458,3.257-3.256,3.257h-2.047c-1.798,0-3.256-1.459-3.256-3.257v-2.045
		c0-1.799,1.458-3.258,3.256-3.258h2.047c1.798,0,3.256,1.459,3.256,3.258V324.383z"/>
</g>
</svg>
