<?xml version="1.0" encoding="utf-8"?>
<!-- Generator: Adobe Illustrator 16.0.0, SVG Export Plug-In . SVG Version: 6.00 Build 0)  -->
<!DOCTYPE svg PUBLIC "-//W3C//DTD SVG 1.1//EN" "http://www.w3.org/Graphics/SVG/1.1/DTD/svg11.dtd">
<svg version="1.1" id="圖層_8" xmlns="http://www.w3.org/2000/svg" xmlns:xlink="http://www.w3.org/1999/xlink" x="0px" y="0px"
	 width="120px" height="120px" viewBox="0 0 120 120" enable-background="new 0 0 120 120" xml:space="preserve">
<g>
	<path fill="#FFFFFF" d="M88.094,33.334H31.903c-1.053,0-1.902,0.852-1.902,1.905v49.522c0,1.053,0.85,1.904,1.902,1.904h56.191
		c1.055,0,1.906-0.853,1.906-1.904V35.239C90,34.185,89.148,33.334,88.094,33.334z M86.189,81.088H46.657
		c-0.455,1.131-1.558,1.933-2.853,1.933c-1.289,0-2.392-0.802-2.847-1.933h-7.15v-2.297h7.15c0.455-1.127,1.558-1.927,2.847-1.927
		c1.294,0,2.397,0.8,2.853,1.927h39.533V81.088z M86.189,73.33H33.808V37.143h52.381V73.33z"/>
	<path fill="#FFFFFF" d="M69.041,54.893c0.959,0.556,0.959,1.463,0,2.019l-14.246,8.229c-0.963,0.556-1.747,0.102-1.747-1.01V47.685
		c0-1.111,0.787-1.565,1.747-1.011L69.041,54.893z"/>
</g>
</svg>
